#!OML:ASF H:\GeneralSubjects\Female5\Project 1\Capture day 1\Session 1\Female5.ASF
:FULLY-SPECIFIED
:DEGREES
595
root -37.7237 16.1721 -1.41553 1254.2 289.154 -529.067
lowerback 8.56399 -0.0656156 -6.58665
upperback -10.6097 -0.855388 6.15298
thorax -16.8536 0.799822 11.2134
lowerneck -12.2003 -2.54041 -6.78863
upperneck 31.2526 -5.83214 7.6292
head 12.8403 -2.9409 3.17268
rclavicle 2.96189e-014 7.15625e-015
rhumerus -55.0101 27.2297 -85.4773
rradius 34.1831
rwrist -16.0677
rhand -23.3696 -21.0574
rfingers 7.12502
rthumb 3.08613 -51.0148
lclavicle 2.96189e-014 7.15625e-015
lhumerus -52.4845 11.1731 73.694
lradius 29.5957
lwrist -6.03051
lhand -25.9734 29.6714
lfingers 7.12502
lthumb 0.57143 59.6504
rfemur 4.3909 25.2566 36.6585
rtibia -3.88276
rfoot -18.7986 -30.8865
rtoes 2.58568
lfemur -4.94704 -27.1036 -22.4048
ltibia 12.4922
lfoot -10.1625 -8.50523
ltoes -11.6306
596
root -37.7694 16.2006 -1.38656 1256.21 289.15 -530.825
lowerback 8.16629 -0.151722 -6.99391
upperback -10.7527 -1.05961 5.92178
thorax -16.7252 0.726163 11.2008
lowerneck -11.7213 -3.15183 -7.74242
upperneck 31.0612 -6.54666 7.65587
head 12.7655 -3.38678 3.24229
rclavicle -1.61016e-014 2.14687e-014
rhumerus -55.5264 26.3367 -85.5239
rradius 34.1068
rwrist -14.9992
rhand -23.1825 -20.7163
rfingers 7.12502
rthumb 3.26688 -50.671
lclavicle -1.61016e-014 2.14687e-014
lhumerus -52.2042 10.8746 73.8079
lradius 29.7667
lwrist -5.34636
lhand -26.2048 29.2631
lfingers 7.12502
lthumb 0.347917 59.2426
rfemur 4.62719 26.4787 36
rtibia -4.40607
rfoot -19.6252 -31.7801
rtoes 2.99204
lfemur -4.30757 -27.7791 -23.2331
ltibia 11.0231
lfoot -10.8259 -7.80989
ltoes -11.2379
597
root -37.8074 16.2211 -1.36691 1255.12 289.317 -529.506
lowerback 8.05856 -0.228778 -6.45563
upperback -10.806 -1.07745 5.99832
thorax -16.7051 0.649666 10.9751
lowerneck -11.5332 -3.82786 -8.79788
upperneck 31.0689 -7.29105 7.54215
head 12.8491 -3.86628 3.26931
rclavicle 3.33958e-014 1.59028e-015
rhumerus -55.6756 26.3634 -85.9996
rradius 33.7922
rwrist -14.7425
rhand -22.779 -20.7012
rfingers 7.12502
rthumb 3.65651 -50.6496
lclavicle 3.33958e-014 1.59028e-015
lhumerus -51.8464 10.5596 73.9858
lradius 29.8819
lwrist -4.88996
lhand -26.0246 29.1981
lfingers 7.12502
lthumb 0.52196 59.1772
rfemur 5.99096 30.1729 37.2396
rtibia -5.71101
rfoot -22.1987 -34.7423
rtoes 5.14146
lfemur -3.5273 -28.1609 -22.7765
ltibia 9.57407
lfoot -11.4125 -7.2618
ltoes -10.71
598
root -37.8563 16.2422 -1.34195 1254.96 289.394 -529.048
lowerback 7.74674 -0.314348 -5.98406
upperback -10.9258 -1.12855 5.96734
thorax -16.6274 0.551558 10.657
lowerneck -11.3773 -4.48471 -9.88405
upperneck 31.1303 -7.99187 7.37969
head 12.9677 -4.33406 3.28594
rclavicle 4.96962e-014 1.98785e-014
rhumerus -56.1433 26.4799 -86.5443
rradius 33.8364
rwrist -14.443
rhand -22.3105 -20.6632
rfingers 7.12502
rthumb 4.10897 -50.6033
lclavicle 4.96962e-014 1.98785e-014
lhumerus -51.6189 10.3177 74.1034
lradius 30.0491
lwrist -4.91296
lhand -25.4805 29.4612
lfingers 7.12502
lthumb 1.04753 59.4384
rfemur 6.18353 31.1663 37.4276
rtibia -5.93073
rfoot -22.7177 -35.5827
rtoes 4.87636
lfemur -2.79651 -28.4794 -22.7602
ltibia 8.11581
lfoot -11.8464 -6.69856
ltoes -10.6304
599
root -37.9109 16.2582 -1.31051 1255.93 289.474 -529.705
lowerback 7.21392 -0.38861 -5.74161
upperback -11.0771 -1.20571 5.86406
thorax -16.4425 0.455952 10.3802
lowerneck -10.8597 -5.0722 -10.9878
upperneck 30.8724 -8.55345 7.11513
head 12.8648 -4.75401 3.28855
rclavicle 4.35338e-014 2.70347e-014
rhumerus -56.8073 26.6909 -87.0486
rradius 34.127
rwrist -13.9866
rhand -21.565 -20.7544
rfingers 7.12502
rthumb 4.82882 -50.6793
lclavicle 4.35338e-014 2.70347e-014
lhumerus -51.4934 10.165 74.2472
lradius 30.2342
lwrist -5.02954
lhand -23.9365 30.1335
lfingers 7.12502
lthumb 2.53865 60.0981
rfemur 6.54851 32.4313 37.2991
rtibia -6.37549
rfoot -23.5365 -36.7431
rtoes 4.76498
lfemur -1.7708 -29.5355 -23.465
ltibia 6.29696
lfoot -13.0252 -5.92536
ltoes -10.6463
600
root -37.9592 16.2647 -1.27767 1256.84 289.712 -530.343
lowerback 6.86864 -0.381938 -5.52226
upperback -11.19 -1.17441 5.80675
thorax -16.361 0.426942 10.1629
lowerneck -10.401 -5.66207 -12.2351
upperneck 30.4455 -9.09135 6.95555
head 12.7251 -5.15183 3.35794
rclavicle -2.34566e-014 3.4191e-014
rhumerus -57.3139 27.1452 -87.5429
rradius 34.3235
rwrist -13.719
rhand -20.7684 -20.6802
rfingers 7.12502
rthumb 5.59795 -50.5863
lclavicle -2.34566e-014 3.4191e-014
lhumerus -51.2254 9.92131 74.6144
lradius 30.3492
lwrist -4.92355
lhand -22.3512 31.7529
lfingers 7.12502
lthumb 4.06964 61.6938
rfemur 7.07862 34.2258 37.3432
rtibia -6.90568
rfoot -24.7575 -38.2719
rtoes 5.0531
lfemur -0.662825 -30.6534 -24.1947
ltibia 4.40672
lfoot -14.4773 -5.13599
ltoes -10.5056
